<svg xmlns="http://www.w3.org/2000/svg" width="1600" height="900" viewBox="0 0 1600 900" fill="none">
  <rect width="1600" height="900" fill="#0D0F14"/>
  <path d="M230 210H1370M230 330H1370M230 450H1370M230 570H1370M230 690H1370" stroke="white" stroke-opacity=".05"/>
  <path d="M390 210V690M610 210V690M830 210V690M1050 210V690M1270 210V690" stroke="white" stroke-opacity=".035"/>
  <rect x="390" y="450" width="220" height="240" fill="#3B82F6" fill-opacity=".12"/>
  <rect x="610" y="330" width="220" height="360" fill="#FFB800" fill-opacity=".12"/>
  <rect x="830" y="390" width="220" height="300" fill="#22C55E" fill-opacity=".10"/>
  <rect x="1050" y="270" width="220" height="420" fill="#3B82F6" fill-opacity=".10"/>
  <path d="M390 510C530 470 600 510 720 440C854 360 970 420 1060 350C1140 288 1210 300 1270 270" stroke="#FFB800" stroke-opacity=".26" stroke-width="2"/>
</svg>
